<svg viewBox="0 0 41 46" fill="none" xmlns="http://www.w3.org/2000/svg">
<path d="M29.25 22.4991L28.1563 39.8317M29.25 22.4991C29.25 12.7496 25.9687 7.33314 20.4998 3C15.0312 7.33314 11.75 12.7496 11.75 22.4991M29.25 22.4991L33.625 25.749C36.3791 27.7949 38 31.0055 38 34.4153V40.8309C38 42.3989 36.3705 43.4477 34.9242 42.8107L28.1563 39.8317M28.1563 39.8317H12.8438M11.75 22.4991L12.8438 39.8317M11.75 22.4991L7.375 25.749C4.62087 27.7949 3 31.0055 3 34.4153L3 40.8309C3 42.3989 4.62936 43.4477 6.07593 42.8107L12.8438 39.8317M20.5 18.166V22.4991" stroke-linecap="round" stroke-linejoin="round"/>
</svg>
